<svg xmlns="http://www.w3.org/2000/svg" viewBox="0 0 127.56 127.56">
  <path fill="#000" d="M108.6 93.73c4.95 0 4.95-4.5 4.95-10l.05-50c0-5.5-4.5-10-10-10h-80c-5.5 0-10 4.5-10 10v50c0 5.5 0 10 5 10h-13c-1.1 0-2 .9-2 2v6c0 1.1.9 2 2 2h116a2 2 0 002-2v-6a2 2 0 00-2-2h-13zm-85-60h80v50h-80v-50z"/>
  <path fill="#000" d="M59.16 66.72c0 1.41-1.42 2.38-2.73 1.86l-13.57-5.31c-.77-.3-1.27-1.04-1.27-1.86v-2.06c0-.82.5-1.56 1.27-1.86l13.57-5.31c1.31-.51 2.73.45 2.73 1.86v.41c0 .83-.51 1.57-1.28 1.87L47.25 60.4l10.63 4.08c.77.3 1.28 1.04 1.28 1.87v.37zM71.21 68.59c-1.31.51-2.73-.45-2.73-1.86v-.37c0-.83.51-1.57 1.28-1.87L80.4 60.4l-10.63-4.08c-.77-.3-1.28-1.04-1.28-1.87v-.41c0-1.41 1.42-2.38 2.73-1.86l13.57 5.31c.77.3 1.27 1.04 1.27 1.86v2.06c0 .82-.5 1.56-1.27 1.86l-13.58 5.32z"/>
</svg>
